<?xml version="1.0" encoding="UTF-8" standalone="no"?>
<!-- Created with Inkscape (http://www.inkscape.org/) -->

<svg
   width="210.0658mm"
   height="132.37131mm"
   viewBox="0 0 210.0658 132.37131"
   version="1.1"
   id="svg1"
   xml:space="preserve"
   xmlns="http://www.w3.org/2000/svg"
   xmlns:svg="http://www.w3.org/2000/svg"><defs
     id="defs1"><filter
       style="color-interpolation-filters:sRGB"
       id="filter4"
       x="-0.49422497"
       y="-0.57981789"
       width="1.9881127"
       height="2.1596364"><feGaussianBlur
         stdDeviation="5"
         result="fbSourceGraphic"
         id="feGaussianBlur3" /><feGaussianBlur
         stdDeviation="0.01"
         in="SourceGraphic"
         result="result1"
         id="feGaussianBlur4" /><feComposite
         in2="result1"
         operator="arithmetic"
         in="fbSourceGraphic"
         k2="0.5"
         k3="0.5"
         result="result2"
         id="feComposite4"
         k1="0"
         k4="0" /><feBlend
         in2="fbSourceGraphic"
         mode="normal"
         result="result3"
         id="feBlend4" /></filter><filter
       style="color-interpolation-filters:sRGB"
       id="filter6"
       x="-0.13062971"
       y="-0.50815015"
       width="1.2612594"
       height="2.0163003"><feGaussianBlur
         stdDeviation="5"
         result="fbSourceGraphic"
         id="feGaussianBlur5" /><feGaussianBlur
         stdDeviation="0.01"
         in="SourceGraphic"
         result="result1"
         id="feGaussianBlur6" /><feComposite
         in2="result1"
         operator="arithmetic"
         in="fbSourceGraphic"
         k2="0.5"
         k3="0.5"
         result="result2"
         id="feComposite6"
         k1="0"
         k4="0" /><feBlend
         in2="fbSourceGraphic"
         mode="normal"
         result="result3"
         id="feBlend6" /></filter></defs><g
     id="layer1"
     transform="translate(232.936,21.851308)"><g
       id="g4"
       transform="matrix(0.55526846,0,0,0.68879806,-209.1682,15.885572)"><path
         fill="#ea4335"
         d="m 115.75,47.18 c 0,12.77 -9.99,22.18 -22.25,22.18 C 81.24,69.36 71.25,59.95 71.25,47.18 71.25,34.32 81.24,25 93.5,25 c 12.26,0 22.25,9.32 22.25,22.18 z m -9.74,0 c 0,-7.98 -5.79,-13.44 -12.51,-13.44 -6.72,0 -12.51,5.46 -12.51,13.44 0,7.9 5.79,13.44 12.51,13.44 6.72,0 12.51,-5.55 12.51,-13.44 z"
         id="path1-8" /><path
         fill="#fbbc05"
         d="m 163.75,47.18 c 0,12.77 -9.99,22.18 -22.25,22.18 -12.26,0 -22.25,-9.41 -22.25,-22.18 0,-12.85 9.99,-22.18 22.25,-22.18 12.26,0 22.25,9.32 22.25,22.18 z m -9.74,0 c 0,-7.98 -5.79,-13.44 -12.51,-13.44 -6.72,0 -12.51,5.46 -12.51,13.44 0,7.9 5.79,13.44 12.51,13.44 6.72,0 12.51,-5.55 12.51,-13.44 z"
         id="path2" /><path
         fill="#4285f4"
         d="m 209.75,26.34 v 39.82 c 0,16.38 -9.66,23.07 -21.08,23.07 -10.75,0 -17.22,-7.19 -19.66,-13.07 l 8.48,-3.53 c 1.51,3.61 5.21,7.87 11.17,7.87 7.31,0 11.84,-4.51 11.84,-13 v -3.19 h -0.34 c -2.18,2.69 -6.38,5.04 -11.68,5.04 -11.09,0 -21.25,-9.66 -21.25,-22.09 0,-12.52 10.16,-22.26 21.25,-22.26 5.29,0 9.49,2.35 11.68,4.96 h 0.34 v -3.61 h 9.25 z m -8.56,20.92 c 0,-7.81 -5.21,-13.52 -11.84,-13.52 -6.72,0 -12.35,5.71 -12.35,13.52 0,7.73 5.63,13.36 12.35,13.36 6.63,0 11.84,-5.63 11.84,-13.36 z"
         id="path3" /><path
         fill="#34a853"
         d="m 225,3 v 65 h -9.5 V 3 Z"
         id="path4" /><path
         fill="#ea4335"
         d="m 262.02,54.48 7.56,5.04 c -2.44,3.61 -8.32,9.83 -18.48,9.83 -12.6,0 -22.01,-9.74 -22.01,-22.18 0,-13.19 9.49,-22.18 20.92,-22.18 11.51,0 17.14,9.16 18.98,14.11 L 270,41.62 240.35,53.9 c 2.27,4.45 5.8,6.72 10.75,6.72 4.96,0 8.4,-2.44 10.92,-6.14 z m -23.27,-7.98 19.82,-8.23 c -1.09,-2.77 -4.37,-4.7 -8.23,-4.7 -4.95,0 -11.84,4.37 -11.59,12.93 z"
         id="path5" /><path
         fill="#4285f4"
         d="M 35.29,41.41 V 32 H 67 c 0.31,1.64 0.47,3.58 0.47,5.68 0,7.06 -1.93,15.79 -8.15,22.01 -6.05,6.3 -13.78,9.66 -24.02,9.66 C 16.32,69.35 0.36,53.89 0.36,34.91 0.36,15.93 16.32,0.47 35.3,0.47 c 10.5,0 17.98,4.12 23.6,9.49 L 52.26,16.6 C 48.23,12.82 42.77,9.88 35.29,9.88 c -13.86,0 -24.7,11.17 -24.7,25.03 0,13.86 10.84,25.03 24.7,25.03 8.99,0 14.11,-3.61 17.39,-6.89 2.66,-2.66 4.41,-6.46 5.1,-11.65 z"
         id="path6" /></g><g
       id="g1"
       transform="matrix(1.0329238,0,0,0.92369873,-259.52066,-82.102375)"
       style="fill:none;fill-opacity:1;stroke:#000000;stroke-opacity:1;filter:url(#filter4)"><path
         d="m 21.6359,12.9579 -0.2787,1.9373 C 20.8697,18.2827 20.626,19.9764 19.451,20.9882 18.2759,22 16.5526,22 13.1061,22 H 10.8939 C 7.44737,22 5.72409,22 4.54903,20.9882 3.37396,19.9764 3.13025,18.2827 2.64284,14.8952 L 2.36407,12.9579 C 1.98463,10.3208 1.79491,9.00229 2.33537,7.87495 2.87583,6.7476 4.02619,6.06234 6.32691,4.69181 L 7.71175,3.86687 C 9.80104,2.62229 10.8457,2 12,2 c 1.1543,0 2.199,0.62229 4.2882,1.86687 l 1.3849,0.82494 c 2.3007,1.37053 3.4511,2.05579 3.9915,3.18314"
         stroke="#1c274c"
         stroke-width="1.5"
         stroke-linecap="round"
         id="path2-8"
         style="fill:none;fill-opacity:1;stroke:#000000;stroke-opacity:1"
         transform="matrix(1.3416493,0,0,1.1085749,36.093114,75.866331)" /><text
         xml:space="preserve"
         style="font-style:italic;font-variant:normal;font-weight:normal;font-stretch:normal;font-size:19.1412px;font-family:'khalaad al-arabeh 2';-inkscape-font-specification:'khalaad al-arabeh 2 Italic';text-align:start;writing-mode:lr-tb;direction:ltr;text-anchor:start;fill:none;fill-opacity:1;stroke:#000000;stroke-width:0.423893;stroke-linecap:round;stroke-linejoin:round;stroke-opacity:1"
         x="47.122723"
         y="91.106934"
         id="text8"
         transform="scale(0.91961118,1.0874161)"><tspan
           id="tspan8"
           style="font-style:italic;font-variant:normal;font-weight:normal;font-stretch:normal;font-family:'khalaad al-arabeh 2';-inkscape-font-specification:'khalaad al-arabeh 2 Italic';fill:none;fill-opacity:1;stroke:#000000;stroke-width:0.423893;stroke-opacity:1"
           x="47.122723"
           y="91.106934">TB</tspan></text></g><text
       xml:space="preserve"
       style="font-style:normal;font-variant:normal;font-weight:normal;font-stretch:normal;font-size:22.5778px;font-family:'Urdu Typesetting';-inkscape-font-specification:'Urdu Typesetting';text-align:start;writing-mode:lr-tb;direction:ltr;text-anchor:start;fill:#000000;fill-opacity:1;stroke:#000000;stroke-width:0.5;stroke-linecap:round;stroke-linejoin:round;stroke-dasharray:none;stroke-opacity:1;filter:url(#filter6)"
       x="-113.20261"
       y="102.39392"
       id="text5"
       transform="matrix(1.0323813,0,0,1.0474884,-16.700521,-14.501147)"><tspan
         id="tspan5"
         style="font-style:normal;font-variant:normal;font-weight:normal;font-stretch:normal;font-family:'Urdu Typesetting';-inkscape-font-specification:'Urdu Typesetting';fill:#000000;fill-opacity:1;stroke:#000000;stroke-width:0.5;stroke-dasharray:none;stroke-opacity:1"
         x="-113.20261"
         y="102.39392">بيت التقنية بيتك</tspan></text><text
       xml:space="preserve"
       style="font-style:normal;font-variant:normal;font-weight:normal;font-stretch:normal;font-size:22.5778px;font-family:'Urdu Typesetting';-inkscape-font-specification:'Urdu Typesetting';text-align:start;writing-mode:lr-tb;direction:ltr;text-anchor:start;fill:#3759c8;fill-opacity:1;stroke:#3759c8;stroke-width:0.5;stroke-linecap:round;stroke-linejoin:round;stroke-dasharray:none;stroke-opacity:1"
       x="-132.01537"
       y="92.404266"
       id="text2"><tspan
         id="tspan2"
         style="font-style:normal;font-variant:normal;font-weight:normal;font-stretch:normal;font-family:'Urdu Typesetting';-inkscape-font-specification:'Urdu Typesetting';fill:#3759c8;fill-opacity:1;stroke:#3759c8;stroke-width:0.5;stroke-dasharray:none;stroke-opacity:1"
         x="-132.01537"
         y="92.404266">بيت التقنية بيتك</tspan></text><g
       id="g3"
       transform="translate(-257.80983,-88.906101)"><path
         d="m 21.6359,12.9579 -0.2787,1.9373 C 20.8697,18.2827 20.626,19.9764 19.451,20.9882 18.2759,22 16.5526,22 13.1061,22 H 10.8939 C 7.44737,22 5.72409,22 4.54903,20.9882 3.37396,19.9764 3.13025,18.2827 2.64284,14.8952 L 2.36407,12.9579 C 1.98463,10.3208 1.79491,9.00229 2.33537,7.87495 2.87583,6.7476 4.02619,6.06234 6.32691,4.69181 L 7.71175,3.86687 C 9.80104,2.62229 10.8457,2 12,2 c 1.1543,0 2.199,0.62229 4.2882,1.86687 l 1.3849,0.82494 c 2.3007,1.37053 3.4511,2.05579 3.9915,3.18314"
         stroke="#1c274c"
         stroke-width="1.5"
         stroke-linecap="round"
         id="path1"
         style="fill:none;fill-opacity:1;stroke:#3759c8;stroke-opacity:1"
         transform="matrix(1.3416493,0,0,1.1085749,36.093114,75.866331)" /><text
         xml:space="preserve"
         style="font-style:italic;font-variant:normal;font-weight:normal;font-stretch:normal;font-size:19.1412px;font-family:'khalaad al-arabeh 2';-inkscape-font-specification:'khalaad al-arabeh 2 Italic';text-align:start;writing-mode:lr-tb;direction:ltr;text-anchor:start;fill:#3759c8;fill-opacity:1;stroke:#3759c8;stroke-width:0.423893;stroke-linecap:round;stroke-linejoin:round;stroke-opacity:1"
         x="47.122723"
         y="91.106934"
         id="text1"
         transform="scale(0.91961118,1.0874161)"><tspan
           id="tspan1"
           style="font-style:italic;font-variant:normal;font-weight:normal;font-stretch:normal;font-family:'khalaad al-arabeh 2';-inkscape-font-specification:'khalaad al-arabeh 2 Italic';fill:#3759c8;fill-opacity:1;stroke:#3759c8;stroke-width:0.423893;stroke-opacity:1"
           x="47.122723"
           y="91.106934">TB</tspan></text></g></g></svg>
